
<svg width="62px" height="63px" viewBox="0 0 62 63" version="1.1" xmlns="http://www.w3.org/2000/svg" xmlns:xlink="http://www.w3.org/1999/xlink">
    <g id="Page-1" stroke="none" stroke-width="1" fill="none" fill-rule="evenodd">
        <g id="Artboard" transform="translate(-21.000000, -21.000000)" fill="#000000" fill-rule="nonzero">
            <g id="badge" transform="translate(21.000000, 21.000000)">
                <path d="M61.2093623,35.0010263 L60.2487185,33.6997937 C59.2112232,32.2709893 59.185606,30.3446548 60.2102927,28.9158505 L61.1453194,27.6018607 C62.5798808,25.5862259 61.9138344,22.7796459 59.7235666,21.6187423 L58.2890052,20.8533114 C56.7263579,20.0240946 55.8809914,18.2891178 56.1755888,16.5541411 L56.4445691,14.9594933 C56.8544438,12.5228716 55.0356249,10.2776075 52.5507596,10.1755501 L50.936878,10.1117641 C49.1692935,10.0352211 47.645072,8.84880313 47.1583458,7.15209792 L46.7100454,5.59572171 C46.0183818,3.22288585 43.4054307,1.99819638 41.1255028,2.96774221 L39.6397071,3.60560132 C38.0130169,4.30724633 36.1301551,3.88625932 34.9389568,2.57226957 L33.8630358,1.37309446 C32.1979199,-0.476696933 29.3031799,-0.451182569 27.6764898,1.41136601 L26.6133773,2.6232983 C25.4477962,3.95004523 23.5649344,4.3965466 21.9382442,3.72041595 L20.4396399,3.10807122 C18.1469034,2.16403975 15.5467609,3.43975795 14.8935231,5.82535099 L14.4708398,7.3817272 C14.0097308,9.0784324 12.4983179,10.2903647 10.7307334,10.3924222 L9.1168518,10.4817224 C6.64479512,10.6220514 4.85159338,12.8928298 5.29989381,15.3166944 L5.59449124,16.898585 C5.91470584,18.6335617 5.08214789,20.3685385 3.54511783,21.2232697 L2.12336502,22.0014578 C-0.0412856499,23.2006329 -0.668906258,26.0199701 0.7912723,28.0100905 L1.75191609,29.3113231 C2.78941138,30.7401275 2.81502855,32.666462 1.79034184,34.0952664 L0.855315219,35.4092561 C-0.579246171,37.4248909 0.0868001885,40.2314709 2.27706803,41.3923745 L3.71162942,42.1578054 C5.27427664,42.9870222 6.11964318,44.721999 5.82504575,46.4569757 L5.55606549,48.0516235 C5.14619081,50.4882453 6.96500971,52.7335093 9.44987498,52.8355668 L11.0637565,52.8993527 C12.8313411,52.9758958 14.3555626,54.1623137 14.8422888,55.8590189 L15.2905892,57.4153951 C15.9822527,59.788231 18.5952038,61.0129204 20.8751318,60.0433746 L22.3609275,59.4055155 C23.9876176,58.7038705 25.8704795,59.1248575 27.0616778,60.4388472 L28.1375988,61.6380224 C29.7899061,63.4750566 32.6846461,63.4495422 34.3113362,61.5869936 L35.3744487,60.3750613 C36.5400298,59.0483144 38.4228916,58.601813 40.0495818,59.2779437 L41.5481861,59.8902884 C43.8409226,60.8343199 46.4410651,59.5586017 47.0943029,57.1730086 L47.5169862,55.6166324 C47.9780952,53.9199272 49.4895081,52.7079949 51.2570926,52.6059375 L52.8709742,52.5166372 C55.3430309,52.3763082 57.1362326,50.1055298 56.6879322,47.6816652 L56.3933348,46.0997746 C56.0731202,44.3647979 56.9056781,42.6298211 58.4427082,41.7750899 L59.864461,40.9969018 C62.0419202,39.8104839 62.6695408,36.9911467 61.2093623,35.0010263 Z M38.627829,41.9664477 C37.4622478,43.3697377 35.9508349,44.3137692 34.196059,44.7985421 C33.4275439,45.002657 33.0817122,45.4108868 33.1201379,46.2018321 C33.1585637,46.9800202 33.1201379,47.7709655 33.1201379,48.5491536 C33.1201379,49.2507986 32.7614976,49.6207569 32.069834,49.6335141 C31.2244675,49.6590284 30.379101,49.6590284 29.5337344,49.6335141 C28.7908366,49.6207569 28.4450048,49.1997699 28.4321962,48.4853677 C28.4193876,47.9112945 28.4193876,47.3372213 28.4193876,46.7759053 C28.4065791,45.5129443 28.3681533,45.4619155 27.1513378,45.2705578 C25.5886906,45.0281714 24.0644691,44.6709703 22.6427163,43.9820824 C21.5283695,43.4462808 21.4130923,43.1656228 21.7333069,41.991962 C21.97667,41.1244737 22.2072245,40.2442281 22.4890133,39.3894969 C22.8092279,38.3944367 23.0782082,38.2668649 24.0004262,38.7388806 C25.575882,39.5553403 27.2538065,40.0145988 29.0085825,40.2314709 C30.1357379,40.3717999 31.2500847,40.2569853 32.3003886,39.7977267 C34.2601019,38.9429955 34.5675079,36.6849743 32.9152006,35.332713 C32.3516229,34.8734545 31.7111937,34.5290105 31.0451473,34.2355954 C29.3287971,33.4829216 27.5355954,32.9088484 25.9217138,31.9393026 C23.2959541,30.3701692 21.6308382,28.2269626 21.822967,25.0376671 C22.0407129,21.4401418 24.0900863,19.1948778 27.3947009,17.9957026 C28.7652194,17.4981725 28.7652194,17.5236869 28.778028,16.0948825 C28.778028,15.6101096 28.778028,15.1380939 28.778028,14.653321 C28.8036452,13.5817177 28.9829653,13.3903599 30.0588864,13.3648456 C30.3919096,13.3520884 30.7249327,13.3648456 31.0579559,13.3648456 C33.3378838,13.3648456 33.3378838,13.3648456 33.3506924,15.635624 C33.363501,17.2430289 33.3506924,17.2557861 34.964574,17.4981725 C36.194198,17.6895303 37.3725878,18.0594886 38.5125517,18.5570187 C39.1401723,18.8376767 39.3835354,19.2714208 39.1914067,19.9347943 C38.9096178,20.9170973 38.6406376,21.9121575 38.320423,22.8817034 C38.0258255,23.8002205 37.7312281,23.9405495 36.8346272,23.5068053 C35.0542341,22.6520741 33.1841808,22.294873 31.2116589,22.3969304 C30.6993156,22.4224448 30.1869722,22.4989879 29.7130546,22.7031028 C28.009513,23.4430194 27.7277241,25.3183251 29.1879027,26.4664715 C29.917992,27.0533019 30.7633585,27.4742889 31.6343422,27.83149 C33.1457551,28.4565919 34.657168,29.0434223 36.0917294,29.8343676 C40.6131595,32.3730468 41.8427835,38.0755072 38.627829,41.9664477 Z" id="Shape"></path>
            </g>
        </g>
    </g>
</svg>