
<svg width="47px" height="63px" viewBox="0 0 47 63" version="1.1" xmlns="http://www.w3.org/2000/svg" xmlns:xlink="http://www.w3.org/1999/xlink">
    <g id="Page-1" stroke="none" stroke-width="1" fill="none" fill-rule="evenodd">
        <g id="Artboard" transform="translate(-29.000000, -21.000000)" fill="#000000" fill-rule="nonzero">
            <g id="medal" transform="translate(29.000000, 21.000000)">
                <path d="M46.8435571,28.5514134 L43.7519959,24.3232538 C43.5579648,24.0517206 43.5450294,23.6767462 43.7390605,23.405213 L46.7659446,19.1382629 C47.0375881,18.7503584 46.9082341,18.207292 46.4943012,17.9874794 L41.8763625,15.5178204 C41.5788483,15.3626586 41.410688,15.0264747 41.4753651,14.6902907 L42.342037,9.53116017 C42.4196494,9.0656747 42.0703936,8.62604954 41.5917837,8.61311939 L36.3658811,8.39330681 C36.0295606,8.38037666 35.7320464,8.14763393 35.6414986,7.82438013 L34.1927335,2.78162094 C34.0633795,2.32906563 33.5588988,2.08339275 33.1190951,2.27734502 L28.3071254,4.34616931 C27.9966757,4.47547082 27.6344845,4.39788991 27.4016472,4.15221703 L23.9090886,0.260241346 C23.5857035,-0.0888727522 23.0424166,-0.0888727522 22.7190315,0.273171497 L19.2782145,4.21686779 C19.0583127,4.47547082 18.6961214,4.55305173 18.3856717,4.42375022 L13.5478312,2.43250684 C13.1080276,2.25148472 12.6164823,2.4971576 12.4871282,2.94971291 L11.1030402,7.99247211 C11.0124924,8.3157259 10.7279135,8.54846863 10.391593,8.57432894 L5.16569046,8.87172243 C4.68708057,8.89758273 4.35076011,9.33720789 4.42837253,9.80269335 L5.3726569,14.9488938 C5.43733392,15.2850777 5.26917368,15.6212617 4.98459483,15.7764235 L0.405462373,18.3107332 C-0.00847050413,18.543476 -0.124889126,19.0865423 0.146754325,19.4615167 L3.2383155,23.6896764 C3.43234654,23.9612095 3.44528194,24.3361839 3.25125091,24.6077171 L0.224366739,28.8746672 C-0.0472767114,29.2625718 0.0820773128,29.8056381 0.49601019,30.0254507 L5.11394885,32.4951097 C5.41146311,32.6502715 5.57962334,32.9864555 5.51494633,33.3226394 L4.64827437,38.48177 C4.57066195,38.9472554 4.91991782,39.3868806 5.39852771,39.3998108 L10.6244303,39.6196233 C10.9607507,39.6325535 11.258265,39.8652962 11.3488128,40.18855 L12.8105133,45.2183791 C12.9398673,45.6709344 13.444348,45.9166073 13.8841517,45.722655 L18.6961214,43.6538307 C19.0065711,43.5245292 19.3687623,43.6021101 19.6015996,43.847783 L23.0941582,47.7397587 C23.4175433,48.0888728 23.9608302,48.0888728 24.2842152,47.7268285 L27.7250323,43.7831322 C27.9449341,43.5245292 28.3071254,43.4469483 28.6175751,43.5762498 L33.4554156,45.5674932 C33.8952192,45.7485153 34.3867645,45.5028424 34.5161186,45.0502871 L35.9002066,40.0075279 C35.9907544,39.6842741 36.2753333,39.4515314 36.6116537,39.4256711 L41.8375563,39.1282776 C42.3161662,39.1024173 42.6524867,38.6627921 42.5748743,38.1973066 L41.6305899,33.0511062 C41.5659129,32.7149223 41.7340731,32.3787383 42.018652,32.2235765 L46.5977844,29.6892668 C47.0117173,29.4823844 47.1281359,28.939318 46.8435571,28.5514134 Z M23.5080911,38.2102368 C15.6821726,38.2102368 9.30501924,31.835672 9.30501924,24.0129302 C9.30501924,16.1901883 15.6821726,9.81562351 23.5080911,9.81562351 C31.3340096,9.81562351 37.711163,16.1901883 37.711163,24.0129302 C37.711163,31.8486021 31.3340096,38.2102368 23.5080911,38.2102368 Z" id="Shape"></path>
                <path d="M36.0944179,47 C35.3570423,47.7701704 34.3272591,48.2270512 33.2211957,48.2270512 C32.8270811,48.2270512 32.4329666,48.1617825 32.0642788,48.0573526 L28.7842286,47.0391612 L26.2542675,49.4149411 C26.1652738,49.4932635 26.0889936,49.5715859 26,49.6368546 L30.0682793,62.5861605 C30.2081264,63.0430413 30.7802281,63.1474712 31.0726357,62.7689128 L34.0348515,58.8658458 C34.1746986,58.6700398 34.4289661,58.5917174 34.6450934,58.656986 L39.2600477,60.040682 C39.7050158,60.1712194 40.1118437,59.7404461 39.9719966,59.2966191 L36.0944179,47 Z" id="Path"></path>
                <path d="M18.2157714,47.0391293 L14.9357212,48.0564907 C14.55432,48.1738785 14.1729189,48.2260509 13.7788043,48.2260509 C12.6727409,48.2260509 11.6556711,47.7695426 10.9055821,47 L7.0280034,59.2996381 C6.8881563,59.7561464 7.29498422,60.1735254 7.73995227,60.0430945 L12.3549066,58.6605264 C12.5837473,58.595311 12.8253014,58.6735695 12.9651485,58.869216 L15.9273643,62.7691012 C16.2070585,63.1473509 16.7918736,63.0430062 16.9317207,62.5864979 L21,49.6477482 C20.9110064,49.5825327 20.8220128,49.5042741 20.7457325,49.4260156 L18.2157714,47.0391293 Z" id="Path"></path>
                <path d="M31.9543372,20.0158365 L26.5747984,19.6302059 L24.5477258,14.694135 C24.1708982,13.7686217 22.8325105,13.7686217 22.4556829,14.694135 L20.4286103,19.6302059 L15.0490715,20.0158365 C14.0355352,20.0929626 13.6327195,21.3398346 14.3993687,21.9825522 L18.5184842,25.4275184 L17.2320728,30.607822 C16.9851857,31.5847527 18.0636923,32.3560138 18.9212999,31.8289854 L23.4952073,29.0138824 L28.0691148,31.8289854 C28.9267224,32.3560138 30.005229,31.5847527 29.7583419,30.607822 L28.4719305,25.4275184 L32.5910459,21.9825522 C33.3706893,21.3398346 32.9678735,20.0929626 31.9543372,20.0158365 Z" id="Path"></path>
            </g>
        </g>
    </g>
</svg>