
<svg width="72px" height="51px" viewBox="0 0 72 51" version="1.1" xmlns="http://www.w3.org/2000/svg" xmlns:xlink="http://www.w3.org/1999/xlink">
    <g id="Page-1" stroke="none" stroke-width="1" fill="none" fill-rule="evenodd">
        <g id="Artboard" transform="translate(-14.000000, -27.000000)" fill="#000000" fill-rule="nonzero">
            <g id="delivery" transform="translate(14.000000, 27.000000)">
                <path d="M54,32.6875 C49.0372959,32.6875 45,36.7247959 45,41.6875 C45,46.6502041 49.0372959,50.6875 54,50.6875 C58.9635409,50.6875 63,46.6502041 63,41.6875 C63,36.7247959 58.9627041,32.6875 54,32.6875 Z M54,46.1875 C51.5182993,46.1875 49.5,44.1692007 49.5,41.6875 C49.5,39.2057993 51.5182993,37.1875 54,37.1875 C56.4817007,37.1875 58.5,39.2057993 58.5,41.6875 C58.5,44.1693402 56.4817007,46.1875 54,46.1875 Z" id="Shape"></path>
                <path d="M23,32.6875 C18.0372959,32.6875 14,36.7247959 14,41.6875 C14,46.6502041 18.0372959,50.6875 23,50.6875 C27.9627041,50.6875 32,46.6502041 32,41.6875 C32,36.7247959 27.9627041,32.6875 23,32.6875 Z M23,46.1875 C20.5182993,46.1875 18.5,44.1692007 18.5,41.6875 C18.5,39.2057993 20.5182993,37.1875 23,37.1875 C25.4810034,37.1875 27.5,39.2057993 27.5,41.6875 C27.5,44.1693402 25.4817007,46.1875 23,46.1875 Z" id="Shape"></path>
                <path d="M60.1225735,6.94985865 C59.7328295,6.17582039 58.9404115,5.6875 58.0738242,5.6875 L46,5.6875 L46,10.2721991 L56.6600608,10.2721991 L62.9025014,22.6875 L67,20.6273761 L60.1225735,6.94985865 Z" id="Path"></path>
                <rect id="Rectangle" x="30" y="39.6875" width="17" height="5"></rect>
                <path d="M16.8047868,39.6875 L9.19507715,39.6875 C7.98257389,39.6875 7,40.8067203 7,42.1875 C7,43.5684347 7.98270995,44.6875 9.19507715,44.6875 L16.8049228,44.6875 C18.0174261,44.6875 19,43.5682797 19,42.1875 C19,40.8065653 18.0172901,39.6875 16.8047868,39.6875 Z" id="Path"></path>
                <path d="M71.5204478,25.3580656 L67.0283968,19.6347207 C66.5968281,19.0834458 65.9307205,18.7611103 65.2249804,18.7611103 L48.6297565,18.7611103 L48.6297565,2.94664878 C48.6297565,1.69875403 47.6073818,0.6875 46.3460802,0.6875 L8.28367629,0.6875 C7.02223318,0.6875 6,1.69889405 6,2.94664878 C6,4.19440351 7.02237473,5.20579757 8.28367629,5.20579757 L44.0622624,5.20579757 L44.0622624,21.0202591 C44.0622624,22.2681539 45.0846371,23.2794079 46.3459386,23.2794079 L64.1066386,23.2794079 L67.4325059,27.5176573 L67.4325059,39.1692024 L61.1141083,39.1692024 C59.8526652,39.1692024 58.830432,40.1805965 58.830432,41.4283512 C58.830432,42.676246 59.8528068,43.6875 61.1141083,43.6875 L69.7161822,43.6875 C70.9776253,43.6875 72,42.6761059 72,41.4283512 L72,26.7437441 C72,26.2421778 71.8309961,25.7541938 71.5204478,25.3580656 Z" id="Path"></path>
                <path d="M16.7274477,27.6875 L6.27269312,27.6875 C5.01731683,27.6875 4,28.8067203 4,30.1875 C4,31.5684347 5.01745769,32.6875 6.27269312,32.6875 L16.7273069,32.6875 C17.9826832,32.6875 19,31.5682797 19,30.1875 C19,28.8067203 17.9826832,27.6875 16.7274477,27.6875 Z" id="Path"></path>
                <path d="M21.7215753,18.6875 L2.2784247,18.6875 C1.02002365,18.6875 0,19.8066856 0,21.1875775 C0,22.5684694 1.02002365,23.6875 2.2784247,23.6875 L21.7215753,23.6875 C22.9801176,23.6875 24,22.5683144 24,21.1875775 C24,19.8068405 22.9801176,18.6875 21.7215753,18.6875 Z" id="Path"></path>
                <path d="M25.7215753,9.6875 L6.2784247,9.6875 C5.01988244,9.6875 4,10.8067203 4,12.1875 C4,13.5684347 5.02002365,14.6875 6.2784247,14.6875 L25.7215753,14.6875 C26.9801176,14.6875 28,13.5682797 28,12.1875 C28,10.8067203 26.9801176,9.6875 25.7215753,9.6875 Z" id="Path"></path>
            </g>
        </g>
    </g>
</svg>